<svg width="25" height="17" viewBox="0 0 25 17" fill="none" xmlns="http://www.w3.org/2000/svg">
<path d="M25 0.166748H0V16.833H25V0.166748Z" fill="#F0F0F0"/>
<path d="M14.0625 0.166504H10.9375V6.9378H0V10.063H10.9375V16.8343H14.0625V10.063H25V6.9378H14.0625V0.166504Z" fill="#D80027"/>
<path d="M19.2278 11.3984L25 14.6053V11.3984H19.2278Z" fill="#0052B4"/>
<path d="M15.2174 11.3984L25 16.8332V15.2964L17.9838 11.3984H15.2174Z" fill="#0052B4"/>
<path d="M22.3943 16.8332L15.2174 12.8457V16.8332H22.3943Z" fill="#0052B4"/>
<path d="M15.2174 11.3984L25 16.8332V15.2964L17.9838 11.3984H15.2174Z" fill="#F0F0F0"/>
<path d="M15.2174 11.3984L25 16.8332V15.2964L17.9838 11.3984H15.2174Z" fill="#D80027"/>
<path d="M4.41118 11.3982L0 13.8489V11.3982H4.41118Z" fill="#0052B4"/>
<path d="M9.78281 12.0894V16.8331H1.24487L9.78281 12.0894Z" fill="#0052B4"/>
<path d="M7.01626 11.3984L0 15.2964V16.8332L9.78262 11.3984H7.01626Z" fill="#D80027"/>
<path d="M5.77222 5.60137L0 2.39453V5.60137H5.77222Z" fill="#0052B4"/>
<path d="M9.78262 5.60127L0 0.166504V1.70332L7.01626 5.60127H9.78262Z" fill="#0052B4"/>
<path d="M2.60571 0.166504L9.78288 4.15401V0.166504H2.60571Z" fill="#0052B4"/>
<path d="M9.78262 5.60127L0 0.166504V1.70332L7.01626 5.60127H9.78262Z" fill="#F0F0F0"/>
<path d="M9.78262 5.60127L0 0.166504V1.70332L7.01626 5.60127H9.78262Z" fill="#D80027"/>
<path d="M20.5889 5.60132L25 3.15063V5.60132H20.5889Z" fill="#0052B4"/>
<path d="M15.2174 4.91021V0.166504H23.7553L15.2174 4.91021Z" fill="#0052B4"/>
<path d="M17.9838 5.60127L25 1.70332V0.166504L15.2174 5.60127H17.9838Z" fill="#D80027"/>
</svg>
